<?xml version="1.0" encoding="UTF-8" standalone="no"?>
<svg width="30px" height="50px" viewBox="0 0 30 50" version="1.1" xmlns="http://www.w3.org/2000/svg" xmlns:xlink="http://www.w3.org/1999/xlink">
    <!-- Generator: Sketch 39.1 (31720) - http://www.bohemiancoding.com/sketch -->
    <title>icon_arrivee</title>
    <desc>Created with Sketch.</desc>
    <defs></defs>
    <g id="Thermomètre-(Android)" stroke="none" stroke-width="1" fill="none" fill-rule="evenodd">
        <g id="icon_arrivee" fill="#6A6A6A">
            <path d="M18,8.49221014 L18,0 L12,0 L12,8.40801177 C12.9068402,8.14215062 13.8673727,8 14.8636364,8 C15.9603805,8 17.0138224,8.17227044 18,8.49221014 Z" id="Combined-Shape"></path>
            <path d="M14.8636364,10 C9.16558442,10 4.63636364,14.65 4.63636364,20.5 C4.63636364,28.3 14.8636364,40 14.8636364,40 C14.8636364,40 25.0909091,28.3 25.0909091,20.5 C25.0909091,14.65 20.5616883,10 14.8636364,10 L14.8636364,10 Z M14.8636364,24.25 C12.8181818,24.25 11.211039,22.6 11.211039,20.5 C11.211039,18.4 12.8181818,16.75 14.8636364,16.75 C16.9090909,16.75 18.5162338,18.4 18.5162338,20.5 C18.5162338,22.6 16.9090909,24.25 14.8636364,24.25 L14.8636364,24.25 Z" id="Destination"></path>
        </g>
    </g>
</svg>