<?xml version="1.0" encoding="UTF-8" standalone="no"?>
<svg width="50px" height="50px" viewBox="0 0 50 50" version="1.1" xmlns="http://www.w3.org/2000/svg" xmlns:xlink="http://www.w3.org/1999/xlink">
    <!-- Generator: Sketch 3.8.1 (29687) - http://www.bohemiancoding.com/sketch -->
    <title>thermometer_start@50</title>
    <desc>Created with Sketch.</desc>
    <defs></defs>
    <g id="Android" stroke="none" stroke-width="1" fill="none" fill-rule="evenodd">
        <g id="thermometer_start@50" fill="#000000">
            <path d="M28,39.6999457 L28,52 L22,52 L22,39.6999457 C15.153279,38.3101347 10,32.2568737 10,25 C10,16.7157288 16.7157288,10 25,10 C33.2842712,10 40,16.7157288 40,25 C40,32.2568737 34.846721,38.3101347 28,39.6999457 Z M25.350689,34.4764773 L18.7282416,28.7147324 C18.4930791,28.507101 18.312917,28.2698114 18.1877498,28.0028566 C18.0625826,27.7359019 18,27.4541205 18,27.1575041 C18,26.5939329 18.1896444,26.1193538 18.5689388,25.7337525 C18.9482332,25.3481512 19.4147583,25.1553534 19.9685282,25.1553534 C20.2719637,25.1553534 20.564016,25.212822 20.8446939,25.3277608 C21.1253718,25.4426997 21.3757023,25.6076901 21.5956931,25.822737 L23.2001004,27.3910884 L23.2001004,17.0911352 C23.2001004,16.5053178 23.4049164,16.0103466 23.8145543,15.6062067 C24.2241923,15.2020669 24.7362321,15 25.350689,15 C25.9499742,15 26.4563247,15.2020669 26.8697556,15.6062067 C27.2831865,16.0103466 27.4898989,16.5053178 27.4898989,17.0911352 L27.4898989,27.3910884 L29.3332605,25.822737 C29.5760089,25.6002747 29.8282359,25.4334304 30.0899491,25.3221993 C30.3516622,25.2109681 30.611475,25.1553534 30.8693952,25.1553534 C31.3624779,25.1553534 31.7891778,25.3537126 32.1495075,25.7504371 C32.5098372,26.1471615 32.6899993,26.6161792 32.6899993,27.1575041 C32.6899993,27.4615359 32.6255202,27.7488788 32.4965601,28.0195412 C32.3676,28.2902037 32.1893343,28.5219318 31.9617577,28.7147324 L25.350689,34.4764773 Z" id="Icône"></path>
        </g>
    </g>
</svg>