<?xml version="1.0" encoding="UTF-8" standalone="no"?>
<svg width="50px" height="50px" viewBox="0 0 50 50" version="1.1" xmlns="http://www.w3.org/2000/svg" xmlns:xlink="http://www.w3.org/1999/xlink">
    <!-- Generator: Sketch 3.8.1 (29687) - http://www.bohemiancoding.com/sketch -->
    <title>thermometer_current@50</title>
    <desc>Created with Sketch.</desc>
    <defs></defs>
    <g id="Android" stroke="none" stroke-width="1" fill="none" fill-rule="evenodd">
        <g id="thermometer_current@50" fill="#000000">
            <path d="M28,10.2951526 L28,-2 L22,-2 L22,10.3040844 C15.1520058,11.7027407 10,17.7607299 10,25.0220346 C10,32.2833392 15.1520058,38.3413285 22,39.7399848 L22,52 L28,52 L28,39.7489165 C34.8699481,38.3672993 40.0440691,32.2989073 40.0440691,25.0220346 C40.0440691,17.7451618 34.8699481,11.6767698 28,10.2951526 Z M24.8553958,34.6441991 C30.2983806,34.6441991 34.7107916,30.2466953 34.7107916,24.8220995 C34.7107916,19.3975037 30.2983806,15 24.8553958,15 C19.412411,15 15,19.3975037 15,24.8220995 C15,30.2466953 19.412411,34.6441991 24.8553958,34.6441991 Z M25.0002437,30.959944 C28.3140868,30.959944 31.0004874,28.2826193 31.0004874,24.979972 C31.0004874,21.6773247 28.3140868,19 25.0002437,19 C21.6864006,19 19,21.6773247 19,24.979972 C19,28.2826193 21.6864006,30.959944 25.0002437,30.959944 Z" id="Icône"></path>
        </g>
    </g>
</svg>