<?xml version="1.0" encoding="UTF-8" standalone="no"?>
<svg width="88px" height="88px" viewBox="0 0 88 88" version="1.1" xmlns="http://www.w3.org/2000/svg" xmlns:xlink="http://www.w3.org/1999/xlink">
    <defs></defs>
    <g id="Page-1" stroke="none" stroke-width="1" fill="none" fill-rule="evenodd">
        <g id="Thermometer-icon-start">
            <rect id="Ligne" fill="#000000" x="38" y="58" width="12" height="30"></rect>
            <circle id="Arrêt" fill="#000000" cx="44.5" cy="44.5" r="21.5"></circle>
            <path d="M56.9418489,43.5063896 L48.9515298,52.4839296 C48.6635889,52.8027213 48.3345186,53.0469532 47.9643089,53.2166326 C47.5940992,53.386312 47.2033282,53.4711505 46.7919841,53.4711505 C46.0104303,53.4711505 45.3522896,53.2140643 44.8175423,52.6998842 C44.282795,52.185704 44.0154253,51.553272 44.0154253,50.802569 C44.0154253,50.3912249 44.095122,49.9953121 44.2545179,49.6148189 C44.4139137,49.2343256 44.6427204,48.8949718 44.9409449,48.5967473 L47.115916,46.4217763 L32.8320636,46.4217763 C32.019659,46.4217763 31.3332388,46.1441232 30.7727825,45.5888086 C30.2123262,45.0334941 29.9321022,44.3393613 29.9321022,43.5063896 C29.9321022,42.693985 30.2123262,42.0075648 30.7727825,41.4471085 C31.3332388,40.8866521 32.019659,40.6064282 32.8320636,40.6064282 L47.115916,40.6064282 L44.9409449,38.1075253 C44.6324368,37.77845 44.4010593,37.4365253 44.2468052,37.0817411 C44.0925512,36.7269568 44.0154253,36.3747487 44.0154253,36.0251062 C44.0154253,35.356672 44.2905076,34.7782281 44.8406803,34.289757 C45.390853,33.8012858 46.0412811,33.557054 46.7919841,33.557054 C47.2136118,33.557054 47.6120954,33.6444633 47.9874469,33.8192845 C48.3627984,33.9941057 48.6841561,34.2357668 48.9515298,34.5442748 L56.9418489,43.5063896 Z" id="➜" fill="#FFFFFF" transform="translate(44.000000, 44.000000) rotate(-270.000000) translate(-44.000000, -44.000000) "></path>
        </g>
    </g>
</svg>