<?xml version="1.0" encoding="iso-8859-1"?>
<!-- Generator: Adobe Illustrator 16.0.0, SVG Export Plug-In . SVG Version: 6.00 Build 0)  -->
<!DOCTYPE svg PUBLIC "-//W3C//DTD SVG 1.1//EN" "http://www.w3.org/Graphics/SVG/1.1/DTD/svg11.dtd">
<svg version="1.1" id="Layer_1" xmlns="http://www.w3.org/2000/svg" xmlns:xlink="http://www.w3.org/1999/xlink" x="0px" y="0px"
	 width="400px" height="399.996px" viewBox="0 0 400 399.996" style="enable-background:new 0 0 400 399.996;" xml:space="preserve"
	>
<path style="fill:#979696;" d="M116.208,366.521c0,8.961-5.373,16.227-12,16.227H79.293c-6.627,0-12-7.266-12-16.227v-16.214
	c0-8.963,5.373-16.227,12-16.227h24.915c6.627,0,12,7.264,12,16.227V366.521z"/>
<path style="fill:#979696;" d="M332.667,366.521c0,8.961-5.372,16.227-12,16.227h-24.915c-6.627,0-12-7.266-12-16.227v-16.214
	c0-8.963,5.373-16.227,12-16.227h24.915c6.628,0,12,7.264,12,16.227V366.521z"/>
<rect x="118.337" y="18.413" style="fill:#D8D8D8;" width="162.787" height="44.412"/>
<polygon style="fill:#D8D8D8;" points="109.572,65.748 289.889,65.748 281.125,37.406 118.337,37.406 "/>
<path style="fill:#979696;" d="M334.542,349.638c0,6.627-5.373,12-12,12h-245c-6.627,0-12-5.373-12-12c0,0-4-106.391-4-183.391
	s2.758-88.299,4-93.61s4.75-10.515,12-12c0,0,32.779-6,120.64-6s124.36,6,124.36,6c7.75,1.36,11.214,7.395,12,12s4,14.11,4,93.61
	S334.542,349.638,334.542,349.638z"/>
<rect x="65.292" y="269.248" style="fill:#FFFFFF;" width="269.25" height="31.834"/>
<g>
	<path style="fill:#979696;" d="M198.181,59.638c85.428,0,122.467,5.761,123.528,5.931c6.433,1.146,7.712,6.79,7.903,7.911
		c0.068,0.403,0.154,0.84,0.254,1.348c1.005,5.125,3.675,18.741,3.675,91.42c0,78.491-3.956,182.16-3.996,183.198l-0.004,0.097
		v0.096c0,3.859-3.141,7-7,7h-245c-3.86,0-7-3.141-7-7v-0.094l-0.003-0.094c-0.04-1.063-3.997-107.177-3.997-183.203
		c0-75.934,2.694-87.451,3.845-92.369l0.024-0.103c1.066-4.561,3.783-7.328,8.075-8.228
		C79.938,65.295,113.527,59.638,198.181,59.638 M198.181,54.638c-87.86,0-120.64,6-120.64,6c-7.25,1.485-10.758,6.689-12,12
		s-4,16.61-4,93.61s4,183.391,4,183.391c0,6.627,5.373,12,12,12h245c6.627,0,12-5.373,12-12c0,0,4-103.891,4-183.391
		s-3.214-89.005-4-93.61s-4.25-10.64-12-12C322.542,60.638,286.042,54.638,198.181,54.638L198.181,54.638z"/>
</g>
<polygon style="fill:#979696;" points="137.925,302.082 80.542,302.082 98.158,252.79 155.542,252.79 "/>
<g>
	<defs>
		<rect id="SVGID_1_" x="55.542" y="301.082" width="283" height="35.666"/>
	</defs>
	<clipPath id="SVGID_2_">
		<use xlink:href="#SVGID_1_"  style="overflow:visible;"/>
	</clipPath>
	<path style="clip-path:url(#SVGID_2_);" d="M334.542,349.638c0,6.627-5.373,12-12,12h-245c-6.627,0-12-5.373-12-12
		c0,0-4-106.391-4-183.391s2.758-88.299,4-93.61s4.75-10.515,12-12c0,0,32.779-8,120.64-8s124.36,8,124.36,8
		c7.75,1.36,11.214,7.395,12,12s4,14.11,4,93.61S334.542,349.638,334.542,349.638z"/>
</g>
<path style="fill:#D7D7D7;" d="M109.78,324.133c0,2.491-1.306,3.856-4.957,3.856H84.259c-3.65,0-4.957-1.331-4.957-3.856v-12.851
	c0-2.904,1.307-3.856,4.957-3.856h20.563c3.651,0,4.957,1.47,4.957,3.856V324.133z"/>
<path style="fill:#979696;" d="M69.959,180.632c0,2.887-2.499,5.228-5.581,5.228H42.706c-3.083,0-5.582-2.341-5.582-5.228v-44.324
	c0-2.887,2.499-5.227,5.582-5.227h21.672c3.082,0,5.581,2.34,5.581,5.227V180.632z"/>
<path style="fill:#979696;" d="M361.959,180.632c0,2.887-2.5,5.228-5.582,5.228h-21.672c-3.082,0-5.582-2.341-5.582-5.228v-44.324
	c0-2.887,2.5-5.227,5.582-5.227h21.672c3.082,0,5.582,2.34,5.582,5.227V180.632z"/>
<path style="fill:#D7D7D7;" d="M320.447,324.133c0,2.491-1.308,3.856-4.957,3.856h-20.563c-3.651,0-4.957-1.331-4.957-3.856v-12.851
	c0-2.904,1.306-3.856,4.957-3.856h20.563c3.649,0,4.957,1.47,4.957,3.856V324.133z"/>
<path style="fill:#D8D8D8;" d="M333.084,249.699c0,4.669-3.922,8.454-8.761,8.454H75.137c-4.837,0-8.76-3.785-8.76-8.454V128.535
	c0-4.669,3.923-8.454,8.76-8.454h249.187c4.839,0,8.761,3.785,8.761,8.454V249.699z"/>
<line style="fill:none;stroke:#979696;stroke-width:4;stroke-linecap:round;stroke-miterlimit:10;" x1="172.92" y1="285.415" x2="226.542" y2="285.415"/>
<line style="fill:none;stroke:#979696;stroke-width:4;stroke-linecap:round;stroke-miterlimit:10;" x1="172.92" y1="293.415" x2="226.542" y2="293.415"/>
</svg>
