<svg width="40" height="40" viewBox="0 0 40 40" fill="none" xmlns="http://www.w3.org/2000/svg">
<rect width="40" height="40" fill="white"/>
<path d="M7.0412 40H32.9588C37.603 40 40 37.603 40 33.023V6.97699C40 2.397 37.603 0 32.9588 0H7.0412C2.41841 0 0 2.3756 0 6.97699V33.023C0 37.603 2.41841 40 7.0412 40ZM7.31942 35.741C5.35045 35.741 4.25896 34.7138 4.25896 32.6378V7.36223C4.25896 5.28625 5.35045 4.25896 7.31942 4.25896H32.6806C34.6281 4.25896 35.741 5.28625 35.741 7.36223V32.6378C35.741 34.7138 34.6281 35.741 32.6806 35.741H7.31942ZM19.9893 30.091C21.2306 30.091 22.0225 29.2349 22.0225 27.908V22.0011H28.2932C29.5773 22.0011 30.4762 21.2306 30.4762 20.0107C30.4762 18.748 29.6201 17.9561 28.2932 17.9561H22.0225V11.7282C22.0225 10.4013 21.2306 9.54521 19.9893 9.54521C18.748 9.54521 17.9775 10.4441 17.9775 11.7282V17.9561H11.7282C10.4013 17.9561 9.52381 18.748 9.52381 20.0107C9.52381 21.2306 10.4441 22.0011 11.7282 22.0011H17.9775V27.908C17.9775 29.1921 18.748 30.091 19.9893 30.091Z" fill="#333333"/>
</svg>
