<?xml version="1.0" encoding="UTF-8" standalone="no"?>
<svg width="30px" height="30px" viewBox="0 0 30 30" version="1.1" xmlns="http://www.w3.org/2000/svg" xmlns:xlink="http://www.w3.org/1999/xlink">
    <defs></defs>
    <g id="Page-1" stroke="none" stroke-width="1" fill="none" fill-rule="evenodd">
        <g id="Artboard-1">
            <ellipse id="Oval-1" stroke="#FF0000" stroke-width="3" fill="#FFFFFF" cx="15" cy="15" rx="13.7838473" ry="13.7838473"></ellipse>
            <g id="wheelchair2" transform="translate(8.652236, 7.851386)" fill="#000000">
                <g id="Group">
                    <path d="M8.14062382,12.0180068 C7.81519169,12.6542416 7.35659503,13.1595509 6.76430797,13.5338743 C6.17213777,13.9078952 5.52571428,14.0952081 4.82500827,14.0952081 C3.79621152,14.0952081 2.91623883,13.7168009 2.18497335,12.9595326 C1.4537663,12.2024762 1.08813356,11.2911709 1.08813356,10.2259193 C1.08813356,9.46018082 1.29103563,8.75642625 1.69701506,8.11423206 C2.10293606,7.47224962 2.64514765,6.99573905 3.32350375,6.6848516 L3.18172063,5.55341125 C2.23636352,5.91046142 1.47322386,6.5178672 0.892067929,7.37577983 C0.310970428,8.23372271 0.0204508925,9.18387003 0.0204508925,10.2259193 C0.0204508925,11.1243982 0.235944868,11.9548431 0.666874387,12.7177078 C1.09780391,13.4805724 1.68167689,14.0851648 2.41846411,14.5313338 C3.15516369,14.9775029 3.95748141,15.2005118 4.82489141,15.2005118 C5.86479008,15.2005118 6.80740093,14.8810028 7.65251945,14.2418942 C8.49778405,13.6029369 9.08165703,12.7679241 9.40419682,11.7372491 L8.55346891,9.97541241 C8.60351516,10.7009778 8.46593909,11.3817418 8.14062382,12.0180068 L8.14062382,12.0180068 Z" id="Shape"></path>
                    <path d="M13.1244479,10.8390727 L11.4729507,11.694172 L9.57113453,7.76447233 C9.47656376,7.56300202 9.3179817,7.46220636 9.09562207,7.46220636 L5.30031623,7.46220636 L5.16685955,6.35675145 L8.56185377,6.35675145 L8.56185377,5.25117553 L5.03354894,5.25117553 L4.72485733,2.75512168 C5.10308198,2.79538549 5.43672368,2.67592509 5.72587009,2.39671023 C6.0150457,2.11746511 6.15963351,1.77920069 6.15963351,1.38188671 C6.15963351,1.00187618 6.02901074,0.676528847 5.76761912,0.405874957 C5.50613985,0.135251318 5.19189728,0 4.82497906,0 C4.52473074,0 4.25495425,0.0906313909 4.01588332,0.272015176 C3.77672474,0.453398961 3.61825954,0.690807224 3.54042929,0.984451721 C3.49587556,1.13425367 3.47919347,1.25510561 3.49038303,1.34724954 L4.29106469,8.07532953 C4.30777599,8.21372693 4.36746338,8.33010175 4.47033137,8.42533127 C4.57319936,8.52016752 4.6913763,8.56778227 4.8248622,8.56778227 L8.76189272,8.56778227 L10.7557087,12.687578 C10.8502794,12.888897 11.0086278,12.9898439 11.2313088,12.9898439 C11.3202701,12.9898439 11.400759,12.9697574 11.4731552,12.9294028 L13.6081115,11.8237664 L13.1244479,10.8390727 L13.1244479,10.8390727 Z" id="Shape"></path>
                </g>
            </g>
        </g>
    </g>
</svg>