<svg width="40" height="40" viewBox="0 0 40 40" fill="none" xmlns="http://www.w3.org/2000/svg">
<rect width="40" height="40" fill="white"/>
<path d="M20.0175 26.0497C20.9254 26.0497 21.6587 25.3164 21.6587 24.4435V6.87909L21.519 4.29506L22.6015 5.56962L25.0284 8.1711C25.3252 8.48537 25.7268 8.64251 26.1283 8.64251C26.9315 8.64251 27.5949 8.06634 27.5949 7.24574C27.5949 6.80925 27.4203 6.49498 27.1235 6.19816L21.2571 0.558708C20.8381 0.139677 20.4539 0 20.0175 0C19.5984 0 19.1969 0.139677 18.7778 0.558708L12.9114 6.19816C12.6146 6.49498 12.4574 6.80925 12.4574 7.24574C12.4574 8.06634 13.1035 8.64251 13.9066 8.64251C14.3082 8.64251 14.7272 8.48537 15.0066 8.1711L17.4334 5.56962L18.5159 4.27761L18.3937 6.87909V24.4435C18.3937 25.3164 19.127 26.0497 20.0175 26.0497ZM9.94326 40H30.0567C33.8455 40 35.8009 38.0445 35.8009 34.3081V17.1453C35.8009 13.409 33.8455 11.4535 30.0567 11.4535H25.3426V14.928H29.8298C31.4186 14.928 32.3265 15.766 32.3265 17.4422V33.9939C32.3265 35.67 31.4186 36.5081 29.8298 36.5081H10.1702C8.56395 36.5081 7.67351 35.67 7.67351 33.9939V17.4422C7.67351 15.766 8.56395 14.928 10.1702 14.928H14.7097V11.4535H9.94326C6.17199 11.4535 4.19905 13.3915 4.19905 17.1453V34.3081C4.19905 38.0445 6.17199 40 9.94326 40Z" fill="#007AFF"/>
</svg>
