<?xml version="1.0" encoding="UTF-8" standalone="no"?>
<svg width="44px" height="44px" viewBox="0 0 44 44" version="1.1" xmlns="http://www.w3.org/2000/svg" xmlns:xlink="http://www.w3.org/1999/xlink">
    <defs></defs>
    <g id="Thermometer-icons" stroke="none" stroke-width="1" fill="none" fill-rule="evenodd">
        <g id="thermometer_start" fill="#000000">
            <path d="M25,34.9486438 L25,45 L19,45 L19,34.9486438 C13.2420404,33.5979953 8.95593085,28.4449027 8.95593085,22.2941176 C8.95593085,15.1144159 14.7959595,9.29411765 22,9.29411765 C29.2040405,9.29411765 35.0440691,15.1144159 35.0440691,22.2941176 C35.0440691,28.4449027 30.7579596,33.5979953 25,34.9486438 L25,34.9486438 Z M22.0049905,30.8361854 L16.1959941,25.7821693 C15.9897171,25.6000417 15.8316847,25.3918989 15.7218921,25.1577349 C15.6120995,24.9235708 15.5572041,24.6764013 15.5572041,24.416219 C15.5572041,23.9218726 15.723554,23.5055872 16.0562587,23.1673502 C16.3889635,22.8291132 16.7981843,22.6599972 17.2839333,22.6599972 C17.5500971,22.6599972 17.8062759,22.7104068 18.0524775,22.8112274 C18.298679,22.912048 18.5182609,23.0567723 18.7112297,23.2454045 L20.1185639,24.6211115 L20.1185639,15.586326 C20.1185639,15.072466 20.2982217,14.6382933 20.6575429,14.2837949 C21.0168641,13.9292965 21.4660088,13.7520499 22.0049905,13.7520499 C22.5306641,13.7520499 22.9748183,13.9292965 23.3374665,14.2837949 C23.7001148,14.6382933 23.8814361,15.072466 23.8814361,15.586326 L23.8814361,24.6211115 L25.4983733,23.2454045 C25.7113044,23.0502677 25.9325497,22.9039174 26.162116,22.806349 C26.3916823,22.7087806 26.6195817,22.6599972 26.845821,22.6599972 C27.2783372,22.6599972 27.6526244,22.8339915 27.968694,23.1819853 C28.2847635,23.5299792 28.4427959,23.9413863 28.4427959,24.416219 C28.4427959,24.6829059 28.386237,24.9349537 28.2731173,25.17237 C28.1599977,25.4097864 28.0036288,25.6130508 27.8040059,25.7821693 L22.0049905,30.8361854 Z" id="Icône"></path>
        </g>
    </g>
</svg>