<?xml version="1.0" encoding="UTF-8" standalone="no"?>
<svg width="44px" height="44px" viewBox="0 0 44 44" version="1.1" xmlns="http://www.w3.org/2000/svg" xmlns:xlink="http://www.w3.org/1999/xlink">
    <defs></defs>
    <g id="Thermometer-icons" stroke="none" stroke-width="1" fill="none" fill-rule="evenodd">
        <g id="thermometer_current" fill="#000000">
            <path d="M25,9.35835523 L25,0 L19,0 L19,9.3375353 C13.2444077,10.6758218 8.95593085,15.8370972 8.95593085,22 C8.95593085,28.1629028 13.2444077,33.3241782 19,34.6624647 L19,44 L25,44 L25,34.6416448 C30.7111803,33.2713916 34.9559309,28.1314031 34.9559309,22 C34.9559309,15.8685969 30.7111803,10.7286084 25,9.35835523 L25,9.35835523 Z M22,30.5 C26.7103342,30.5 30.5288144,26.6944204 30.5288144,22 C30.5288144,17.3055796 26.7103342,13.5 22,13.5 C17.2896658,13.5 13.4711856,17.3055796 13.4711856,22 C13.4711856,26.6944204 17.2896658,30.5 22,30.5 Z M22,27.1750404 C24.8677847,27.1750404 27.1925835,24.8580959 27.1925835,22 C27.1925835,19.1419041 24.8677847,16.8249596 22,16.8249596 C19.1322153,16.8249596 16.8074165,19.1419041 16.8074165,22 C16.8074165,24.8580959 19.1322153,27.1750404 22,27.1750404 Z" id="Icône"></path>
        </g>
    </g>
</svg>