<?xml version="1.0" encoding="UTF-8" standalone="no"?>
<svg width="44px" height="44px" viewBox="0 0 44 44" version="1.1" xmlns="http://www.w3.org/2000/svg" xmlns:xlink="http://www.w3.org/1999/xlink">
    <!-- Generator: Sketch 39.1 (31720) - http://www.bohemiancoding.com/sketch -->
    <title>trajet_start</title>
    <desc>Created with Sketch.</desc>
    <defs></defs>
    <g id="Thermomètre-(iOS)" stroke="none" stroke-width="1" fill="none" fill-rule="evenodd">
        <g id="trajet_start" fill="#000000">
            <path d="M25,34.6416448 L25,44 L19,44 L19,34.6624647 C13.2444077,33.3241782 8.95593085,28.1629028 8.95593085,22 C8.95593085,14.8202983 14.7762291,9 21.9559309,9 C29.1356326,9 34.9559309,14.8202983 34.9559309,22 C34.9559309,28.1314031 30.7111803,33.2713916 25,34.6416448 Z M22,30.5 C26.7103342,30.5 30.5288144,26.6944204 30.5288144,22 C30.5288144,17.3055796 26.7103342,13.5 22,13.5 C17.2896658,13.5 13.4711856,17.3055796 13.4711856,22 C13.4711856,26.6944204 17.2896658,30.5 22,30.5 Z" id="Icône"></path>
        </g>
    </g>
</svg>