<?xml version="1.0" encoding="UTF-8" standalone="no"?>
<svg width="44px" height="44px" viewBox="0 0 44 44" version="1.1" xmlns="http://www.w3.org/2000/svg" xmlns:xlink="http://www.w3.org/1999/xlink">
    <!-- Generator: Sketch 39.1 (31720) - http://www.bohemiancoding.com/sketch -->
    <title>trajet_end</title>
    <desc>Created with Sketch.</desc>
    <defs></defs>
    <g id="Thermomètre-(iOS)" stroke="none" stroke-width="1" fill="none" fill-rule="evenodd">
        <g id="trajet_end" fill="#000000">
            <path d="M24.9559309,9.34786368 L24.9559309,0 L18.9559309,0 L18.9559309,9.34786368 C13.2225309,10.7021913 8.95593085,15.8528367 8.95593085,22 C8.95593085,29.1797017 14.7762291,35 21.9559309,35 C29.1356326,35 34.9559309,29.1797017 34.9559309,22 C34.9559309,15.8528367 30.6893308,10.7021913 24.9559309,9.34786368 Z M22,30.5 C26.7103342,30.5 30.5288144,26.6944204 30.5288144,22 C30.5288144,17.3055796 26.7103342,13.5 22,13.5 C17.2896658,13.5 13.4711856,17.3055796 13.4711856,22 C13.4711856,26.6944204 17.2896658,30.5 22,30.5 Z" id="Icône"></path>
        </g>
    </g>
</svg>